<?xml version="1.0" standalone="no"?>
<!DOCTYPE svg PUBLIC "-//W3C//DTD SVG 20010904//EN"
 "http://www.w3.org/TR/2001/REC-SVG-20010904/DTD/svg10.dtd">
<svg version="1.0" xmlns="http://www.w3.org/2000/svg"
 width="573.000000pt" height="573.000000pt" viewBox="0 0 573.000000 573.000000"
 preserveAspectRatio="xMidYMid meet">
<metadata>
Created by potrace 1.11, written by Peter Selinger 2001-2013
</metadata>
<g transform="translate(0.000000,573.000000) scale(0.100000,-0.100000)"
fill="#000000" stroke="none">
<path d="M2635 5720 c-397 -33 -805 -155 -1141 -341 -634 -352 -1108 -913
-1338 -1588 -176 -514 -202 -1068 -74 -1596 228 -951 932 -1723 1857 -2039
514 -176 1068 -202 1596 -74 523 125 988 389 1367 774 136 139 214 231 306
363 473 679 633 1517 440 2316 -188 784 -696 1447 -1412 1844 -473 262 -1055
386 -1601 341z m455 -1845 c358 -98 642 -381 739 -735 143 -523 -150 -1080
-661 -1259 -531 -185 -1108 76 -1317 596 -41 100 -59 176 -70 288 -36 356 119
713 403 929 131 100 289 171 451 202 114 22 338 12 455 -21z"/>
<path d="M2167 3589 c-111 -95 -219 -263 -270 -419 -39 -119 -40 -128 -16
-135 11 -4 61 -34 110 -67 101 -67 234 -195 293 -281 37 -53 41 -56 60 -44 12
8 58 35 103 61 78 45 83 49 75 74 -4 15 -7 61 -7 102 1 60 6 87 27 132 40 87
123 159 221 191 15 6 17 21 17 126 l0 119 -62 7 c-142 16 -336 82 -450 152
-21 13 -41 23 -45 23 -5 -1 -29 -19 -56 -41z"/>
<path d="M3380 3574 c-90 -47 -259 -99 -368 -115 l-92 -13 0 -118 c0 -88 3
-118 13 -118 29 0 135 -61 173 -99 79 -80 116 -201 95 -303 -14 -62 -21 -53
113 -130 l89 -51 19 24 c117 147 195 224 306 297 61 41 62 48 32 168 -41 158
-182 391 -285 469 l-30 23 -65 -34z"/>
<path d="M2495 2575 c-49 -30 -93 -55 -97 -57 -5 -2 6 -37 23 -78 47 -117 70
-222 76 -363 5 -104 9 -129 22 -137 73 -38 350 -56 481 -31 57 11 197 55 207
65 2 2 8 52 13 112 11 124 46 263 89 357 l29 65 -109 62 -108 62 -40 -31 c-70
-56 -127 -75 -216 -76 -93 0 -153 19 -221 71 -24 19 -48 34 -52 33 -4 0 -47
-25 -97 -54z"/>
</g>
</svg>
